<?xml version="1.0" encoding="UTF-8"?>
<!DOCTYPE svg PUBLIC "-//W3C//DTD SVG 1.1//EN" "http://www.w3.org/Graphics/SVG/1.1/DTD/svg11.dtd">
<svg version="1.2" width="40.5mm" height="48.5mm" viewBox="0 0 4050 4850" preserveAspectRatio="xMidYMid" fill-rule="evenodd" stroke-width="28.222" stroke-linejoin="round" xmlns="http://www.w3.org/2000/svg" xmlns:ooo="http://xml.openoffice.org/svg/export" xmlns:xlink="http://www.w3.org/1999/xlink" xmlns:presentation="http://sun.com/xmlns/staroffice/presentation" xmlns:smil="http://www.w3.org/2001/SMIL20/" xmlns:anim="urn:oasis:names:tc:opendocument:xmlns:animation:1.0" xml:space="preserve">
 <defs class="ClipPathGroup">
  <clipPath id="presentation_clip_path" clipPathUnits="userSpaceOnUse">
   <rect x="0" y="0" width="4050" height="4850"/>
  </clipPath>
 </defs>
 <defs class="TextShapeIndex">
  <g ooo:slide="id1" ooo:id-list="id3"/>
 </defs>
 <defs class="EmbeddedBulletChars">
  <g id="bullet-char-template(57356)" transform="scale(0.00048828125,-0.00048828125)">
   <path d="M 580,1141 L 1163,571 580,0 -4,571 580,1141 Z"/>
  </g>
  <g id="bullet-char-template(57354)" transform="scale(0.00048828125,-0.00048828125)">
   <path d="M 8,1128 L 1137,1128 1137,0 8,0 8,1128 Z"/>
  </g>
  <g id="bullet-char-template(10146)" transform="scale(0.00048828125,-0.00048828125)">
   <path d="M 174,0 L 602,739 174,1481 1456,739 174,0 Z M 1358,739 L 309,1346 659,739 1358,739 Z"/>
  </g>
  <g id="bullet-char-template(10132)" transform="scale(0.00048828125,-0.00048828125)">
   <path d="M 2015,739 L 1276,0 717,0 1260,543 174,543 174,936 1260,936 717,1481 1274,1481 2015,739 Z"/>
  </g>
  <g id="bullet-char-template(10007)" transform="scale(0.00048828125,-0.00048828125)">
   <path d="M 0,-2 C -7,14 -16,27 -25,37 L 356,567 C 262,823 215,952 215,954 215,979 228,992 255,992 264,992 276,990 289,987 310,991 331,999 354,1012 L 381,999 492,748 772,1049 836,1024 860,1049 C 881,1039 901,1025 922,1006 886,937 835,863 770,784 769,783 710,716 594,584 L 774,223 C 774,196 753,168 711,139 L 727,119 C 717,90 699,76 672,76 641,76 570,178 457,381 L 164,-76 C 142,-110 111,-127 72,-127 30,-127 9,-110 8,-76 1,-67 -2,-52 -2,-32 -2,-23 -1,-13 0,-2 Z"/>
  </g>
  <g id="bullet-char-template(10004)" transform="scale(0.00048828125,-0.00048828125)">
   <path d="M 285,-33 C 182,-33 111,30 74,156 52,228 41,333 41,471 41,549 55,616 82,672 116,743 169,778 240,778 293,778 328,747 346,684 L 369,508 C 377,444 397,411 428,410 L 1163,1116 C 1174,1127 1196,1133 1229,1133 1271,1133 1292,1118 1292,1087 L 1292,965 C 1292,929 1282,901 1262,881 L 442,47 C 390,-6 338,-33 285,-33 Z"/>
  </g>
  <g id="bullet-char-template(9679)" transform="scale(0.00048828125,-0.00048828125)">
   <path d="M 813,0 C 632,0 489,54 383,161 276,268 223,411 223,592 223,773 276,916 383,1023 489,1130 632,1184 813,1184 992,1184 1136,1130 1245,1023 1353,916 1407,772 1407,592 1407,412 1353,268 1245,161 1136,54 992,0 813,0 Z"/>
  </g>
  <g id="bullet-char-template(8226)" transform="scale(0.00048828125,-0.00048828125)">
   <path d="M 346,457 C 273,457 209,483 155,535 101,586 74,649 74,723 74,796 101,859 155,911 209,963 273,989 346,989 419,989 480,963 531,910 582,859 608,796 608,723 608,648 583,586 532,535 482,483 420,457 346,457 Z"/>
  </g>
  <g id="bullet-char-template(8211)" transform="scale(0.00048828125,-0.00048828125)">
   <path d="M -4,459 L 1135,459 1135,606 -4,606 -4,459 Z"/>
  </g>
 </defs>
 <defs class="TextEmbeddedBitmaps"/>
 <g>
  <g id="id2" class="Master_Slide">
   <g id="bg-id2" class="Background"/>
   <g id="bo-id2" class="BackgroundObjects"/>
  </g>
 </g>
 <g class="SlideGroup">
  <g>
   <g id="id1" class="Slide" clip-path="url(#presentation_clip_path)">
    <g class="Page">
     <g class="com.sun.star.drawing.ClosedBezierShape">
      <g id="id3">
       <rect class="BoundingBox" stroke="none" fill="none" x="35" y="22" width="3972" height="4771"/>
       <path fill="rgb(102,255,255)" stroke="none" d="M 3794,3489 C 3835,3289 3800,3080 3747,2882 3694,2685 3617,2493 3526,2307 3346,1939 3101,1603 2818,1308 2535,1014 2208,760 1849,563 1669,462 1483,377 1292,303 1100,233 905,162 705,138 605,129 505,126 410,156 316,182 233,241 180,321 74,486 68,704 86,905 130,1311 275,1703 446,2077 620,2452 829,2808 1076,3138 1200,3303 1333,3460 1486,3598 1633,3740 1813,3846 1993,3940 2037,3964 2084,3984 2132,3996 2152,4002 2182,4008 2190,4002 2190,3999 2193,4005 2190,3993 2190,3987 2185,3975 2179,3967 2126,3887 2043,3825 1958,3775 1869,3728 1775,3693 1678,3687 1580,3681 1483,3710 1412,3775 1339,3837 1300,3928 1292,4026 1280,4123 1300,4220 1339,4311 1415,4494 1577,4630 1766,4686 1860,4715 1961,4724 2058,4715 2158,4709 2255,4692 2353,4659 2544,4600 2727,4503 2895,4394 2980,4338 3063,4279 3142,4214 3222,4152 3302,4087 3372,4014 3517,3872 3638,3707 3729,3527 3912,3165 3956,2746 3906,2346 3856,1942 3714,1550 3523,1190 3425,1011 3313,837 3190,675 3063,513 2924,362 2762,236 2683,174 2594,118 2500,82 2409,47 2297,35 2220,97 2143,159 2111,265 2099,365 2087,465 2090,571 2099,672 L 2090,672 C 2078,569 2073,465 2081,362 2093,262 2117,150 2202,76 2244,41 2300,23 2353,23 2406,20 2459,35 2509,50 2609,85 2700,141 2783,203 2951,330 3095,480 3225,642 3355,804 3470,978 3573,1158 3773,1520 3923,1918 3982,2331 4041,2744 3994,3183 3803,3560 3708,3749 3582,3922 3431,4070 3281,4217 3113,4344 2939,4459 2765,4574 2577,4671 2373,4733 2273,4765 2167,4783 2061,4789 1955,4795 1846,4786 1742,4754 1536,4692 1353,4538 1271,4335 1230,4235 1209,4126 1224,4017 1230,3961 1247,3908 1268,3858 1294,3810 1327,3760 1371,3725 1454,3651 1572,3619 1681,3628 1790,3634 1893,3675 1984,3728 2076,3784 2161,3846 2223,3940 2229,3952 2238,3967 2241,3984 2246,3999 2235,4031 2214,4043 2205,4046 2196,4046 2188,4049 2179,4049 2173,4049 2164,4046 2149,4046 2137,4040 2123,4037 2070,4020 2022,3999 1975,3975 1793,3875 1616,3766 1465,3619 1315,3474 1182,3315 1059,3150 814,2817 605,2458 425,2086 337,1901 257,1709 192,1512 127,1314 71,1114 48,907 36,804 30,698 42,592 57,489 80,383 142,289 201,194 295,126 399,94 502,62 614,59 717,70 929,94 1126,165 1321,236 1516,309 1707,395 1887,498 2249,701 2582,961 2865,1264 3151,1568 3387,1912 3564,2290 3652,2478 3723,2673 3770,2876 3814,3077 3847,3289 3800,3492 L 3794,3489 Z"/>
      </g>
     </g>
    </g>
   </g>
  </g>
 </g>
</svg>