<?xml version="1.0" encoding="UTF-8" standalone="no"?>
<!DOCTYPE svg PUBLIC "-//W3C//DTD SVG 1.1//EN" "http://www.w3.org/Graphics/SVG/1.1/DTD/svg11.dtd">
<svg width="100%" height="100%" viewBox="0 0 216 217" version="1.1" xmlns="http://www.w3.org/2000/svg" xmlns:xlink="http://www.w3.org/1999/xlink" xml:space="preserve" xmlns:serif="http://www.serif.com/" style="fill-rule:evenodd;clip-rule:evenodd;stroke-linejoin:round;stroke-miterlimit:2;">
    <g id="Tavola-da-disegno2" serif:id="Tavola da disegno2" transform="matrix(0.98642,0,0,0.982139,-4.61651,-0.218297)">
        <rect x="4.68" y="0.222" width="218.799" height="220.048" style="fill:none;"/>
        <clipPath id="_clip1">
            <rect x="4.68" y="0.222" width="218.799" height="220.048"/>
        </clipPath>
        <g clip-path="url(#_clip1)">
            <g id="Tavola-da-disegno1" serif:id="Tavola da disegno1" transform="matrix(0.814847,0,0,0.897869,26.6982,18.7037)">
                <rect x="-35.086" y="-24.711" width="280.679" height="253.437" style="fill:none;"/>
                <g transform="matrix(1.24412,0,0,1.134,-95.9584,-39.7649)">
                    <circle cx="163.258" cy="124.883" r="106.864" style="fill:white;"/>
                </g>
                <g transform="matrix(1.24412,0,0,1.134,181.823,60.4536)">
                    <path d="M0,73.332C1.448,66.486 0.155,59.402 -1.562,52.714C-3.366,45.987 -5.954,39.492 -9.02,33.248C-15.154,20.749 -23.385,9.339 -32.983,-0.69C-42.578,-10.736 -53.706,-19.303 -65.864,-25.994C-71.924,-29.376 -78.23,-32.313 -84.718,-34.783C-91.207,-37.211 -97.818,-39.629 -104.581,-40.398C-107.944,-40.742 -111.389,-40.782 -114.554,-39.823C-117.719,-38.916 -120.521,-36.965 -122.315,-34.192C-125.96,-28.568 -126.117,-21.219 -125.489,-14.438C-123.996,-0.628 -119.104,12.69 -113.316,25.349C-107.46,38.025 -100.312,50.127 -91.946,61.301C-87.747,66.868 -83.207,72.205 -78.092,76.913C-73.056,81.69 -67.022,85.289 -60.898,88.516C-59.365,89.309 -57.774,89.984 -56.195,90.461C-55.459,90.661 -54.505,90.824 -54.165,90.663C-54.175,90.571 -54.091,90.742 -54.165,90.41C-54.204,90.178 -54.351,89.809 -54.56,89.494C-56.312,86.827 -59.205,84.668 -62.102,82.997C-65.052,81.353 -68.312,80.153 -71.611,79.998C-74.888,79.788 -78.194,80.804 -80.592,82.977C-83.043,85.07 -84.402,88.221 -84.724,91.473C-85.098,94.735 -84.396,98.096 -83.116,101.136C-80.554,107.297 -75.016,111.975 -68.633,113.817C-65.446,114.784 -62.056,115.097 -58.693,114.86C-55.331,114.66 -51.971,114.025 -48.725,112.976C-42.203,110.954 -36.052,107.721 -30.295,103.927C-27.424,102.013 -24.596,100.017 -21.899,97.843C-19.16,95.709 -16.5,93.542 -14.103,91.085C-9.197,86.288 -5.116,80.691 -2.032,74.588C4.187,62.327 5.691,48.113 3.986,34.467C2.271,20.756 -2.493,7.47 -9.043,-4.756C-12.334,-10.87 -16.107,-16.739 -20.38,-22.219C-24.644,-27.692 -29.395,-32.84 -34.857,-37.09C-37.583,-39.205 -40.529,-41.068 -43.714,-42.288C-46.815,-43.522 -50.586,-43.903 -53.236,-41.787C-55.874,-39.696 -56.901,-36.098 -57.332,-32.724C-57.769,-29.281 -57.659,-25.772 -57.369,-22.295L-57.641,-22.267C-58.028,-25.748 -58.24,-29.272 -57.895,-32.79C-57.536,-36.231 -56.651,-40.01 -53.773,-42.458C-52.356,-43.654 -50.484,-44.253 -48.655,-44.304C-46.809,-44.388 -45.021,-43.941 -43.325,-43.373C-39.919,-42.198 -36.875,-40.276 -34.043,-38.163C-28.382,-33.894 -23.487,-28.738 -19.075,-23.249C-14.658,-17.755 -10.745,-11.862 -7.311,-5.705C-0.479,6.607 4.587,20.048 6.566,34.129C8.571,48.144 6.921,62.991 0.484,75.846C-2.727,82.245 -6.988,88.11 -12.078,93.116C-17.183,98.148 -22.832,102.389 -28.743,106.31C-34.684,110.166 -41.064,113.48 -47.94,115.564C-51.358,116.642 -54.936,117.301 -58.554,117.492C-62.168,117.72 -65.863,117.363 -69.372,116.274C-76.396,114.194 -82.59,108.951 -85.322,102.067C-86.696,98.667 -87.425,94.932 -86.954,91.225C-86.764,89.37 -86.204,87.557 -85.424,85.844C-84.524,84.197 -83.473,82.563 -81.959,81.389C-79.127,78.885 -75.17,77.756 -71.5,78.057C-67.79,78.293 -64.322,79.652 -61.21,81.44C-58.131,83.312 -55.208,85.449 -53.133,88.677C-52.887,89.096 -52.657,89.555 -52.558,90.174C-52.358,90.708 -52.709,91.81 -53.501,92.125C-53.816,92.243 -54.117,92.272 -54.429,92.325C-54.706,92.331 -54.946,92.292 -55.207,92.272C-55.741,92.251 -56.144,92.069 -56.618,91.972C-58.379,91.415 -60.01,90.682 -61.573,89.848C-67.752,86.477 -73.813,82.728 -78.893,77.771C-83.992,72.9 -88.505,67.489 -92.715,61.876C-101.055,50.581 -108.127,38.402 -114.173,25.748C-117.151,19.398 -119.844,12.905 -122.075,6.242C-124.314,-0.411 -126.157,-7.241 -127,-14.274C-127.408,-17.788 -127.56,-21.357 -127.211,-24.929C-126.801,-28.474 -125.939,-32.105 -123.911,-35.237C-121.955,-38.404 -118.709,-40.761 -115.168,-41.831C-111.623,-42.955 -107.906,-43.006 -104.341,-42.646C-97.151,-41.856 -90.466,-39.428 -83.868,-37.01C-77.262,-34.543 -70.817,-31.602 -64.696,-28.085C-52.379,-21.189 -41.133,-12.4 -31.466,-2.133C-21.782,8.119 -13.738,19.901 -7.729,32.63C-4.706,38.986 -2.313,45.647 -0.691,52.496C0.841,59.306 1.94,66.497 0.265,73.403L0,73.332Z" style="fill:rgb(3,17,252);fill-rule:nonzero;stroke:rgb(3,17,252);stroke-width:1.5px;"/>
                </g>
            </g>
        </g>
    </g>
</svg>
